<?xml version="1.0" encoding="utf-8"?>
<!-- Svg Vector Icons : http://www.onlinewebfonts.com/icon -->
<!DOCTYPE svg PUBLIC "-//W3C//DTD SVG 1.1//EN" "http://www.w3.org/Graphics/SVG/1.1/DTD/svg11.dtd">
<svg version="1.1" xmlns="http://www.w3.org/2000/svg" xmlns:xlink="http://www.w3.org/1999/xlink" x="0px" y="0px" viewBox="0 0 1000 1000" enable-background="new 0 0 1000 1000" xml:space="preserve">
<metadata> Svg Vector Icons : http://www.onlinewebfonts.com/icon </metadata>
<g><g transform="translate(0.000000,511.000000) scale(0.100000,-0.100000)"><path d="M4180.1,4995.6c-655.2-48.1-1333.3-164.4-1776-306.1c-290.9-93.6-447.8-222.6-569.2-473.1l-83.5-169.5V1441.1c0-1431.9,10.1-2648.8,20.2-2701.9c25.3-116.4,144.2-255.5,273.2-323.8c83.5-43,151.8-48.1,518.6-48.1h420L1731.1-2905.3C357.4-4301.8,380.1-4271.4,445.9-4496.6c60.7-199.8,268.2-326.3,475.6-285.9c81,15.2,156.9,78.4,475.6,394.6l382,377h3223.1h3223.1l382-377c318.8-316.2,394.7-379.5,475.6-394.6c212.5-40.5,417.4,88.5,473.1,293.5c60.7,222.7,86,192.3-1277.6,1576.2L7031.3-1645.4l432.6,12.7c374.4,10.1,447.8,20.2,521.2,63.2c146.7,86,230.2,212.5,258,394.7c15.2,101.2,22.8,1098,17.7,2691.8l-7.6,2529.9l-83.5,169.5c-124,253-278.3,379.5-576.8,475.6c-321.3,103.7-900.7,217.6-1351,265.6C5809.3,5005.8,4615.2,5026,4180.1,4995.6z M6368.4,4135.5v-151.8H5002.3H3636.1v151.8v151.8h1366.2h1366.1V4135.5z M4582.3,3310.7c35.4-32.9,40.5-154.3,40.5-948.7c0-579.4-10.1-928.5-25.3-961.4c-25.3-45.5-63.2-48.1-918.4-48.1c-660.3,0-900.6,7.6-923.4,30.4c-22.8,22.8-30.4,273.2-30.4,974c0,870.3,2.5,943.7,45.5,966.4c25.3,17.7,366.8,27.8,908.3,27.8C4430.5,3351.2,4549.4,3346.1,4582.3,3310.7z M7231.1,3325.9c45.6-25.3,48.1-63.3,48.1-969c0-700.8-7.6-951.3-30.4-974c-22.8-22.8-263.1-30.4-923.4-30.4c-855.1,0-893,2.5-918.4,48.1c-15.2,32.9-25.3,382-25.3,961.4c0,794.4,5.1,915.8,40.5,948.7c32.9,35.4,151.8,40.5,898.1,40.5C6866.8,3351.2,7198.2,3341.1,7231.1,3325.9z M3481.8,39.6c192.3-96.2,296-326.4,247.9-556.6c-30.4-154.3-197.3-316.2-356.7-351.7c-182.2-37.9-328.9,5.1-457.9,134.1c-199.9,199.9-199.9,483.2,0,685.6C3074.5,110.4,3276.9,140.7,3481.8,39.6z M6975.6,39.6c139.1-73.4,232.8-207.5,247.9-354.2c17.7-202.4-10.1-298.5-131.6-420c-349.1-349.1-923.4-30.4-819.7,452.9C6297.6-157.8,6414-11,6532.9,49.7C6639.1,102.8,6866.8,97.7,6975.6,39.6z M6133.2-1890.8c144.2-144.2,260.6-268.2,260.6-278.3c0-12.7-624.9-20.2-1391.5-20.2c-764,0-1391.4,7.6-1391.4,17.7s116.4,136.6,258.1,278.3l260.6,260.6h872.8h872.8L6133.2-1890.8z M7304.5-3087.4l215-215H5007.4H2495.1l197.3,215l197.3,215h2099.8h2099.8L7304.5-3087.4z"/></g></g>
</svg>